<?xml version="1.0" encoding="UTF-8"?>
<svg width="67px" height="71px" viewBox="0 0 67 71" version="1.1" xmlns="http://www.w3.org/2000/svg" xmlns:xlink="http://www.w3.org/1999/xlink">
    <!-- Generator: Sketch 53.1 (72631) - https://sketchapp.com -->
    <title>Group</title>
    <desc>Created with Sketch.</desc>
    <defs>
        <path d="M9.87341772,9.56657078e-15 L9.87341772,9.56657078e-15 L26.0299194,9.56657078e-15 L26.0299194,8.8817842e-15 C31.7307183,2.77123792e-15 36.3521289,4.62141058 36.3521289,10.3222094 L36.3521289,10.5466053 L36.3521289,26.4787112 L36.3521289,26.4787112 C36.3521289,31.9316492 31.9316492,36.3521289 26.4787112,36.3521289 L9.87341772,36.3521289 L9.87341772,36.3521289 C4.42047969,36.3521289 7.28733104e-15,31.9316492 1.77635684e-15,26.4787112 L8.56667496e-15,26.4787112 L9.56657078e-15,9.87341772 L8.8817842e-15,9.87341772 C3.37081e-15,4.42047969 4.42047969,1.47266546e-14 9.87341772,8.8817842e-15 Z" id="path-1"></path>
        <filter x="-35.8%" y="-30.3%" width="171.5%" height="171.5%" filterUnits="objectBoundingBox" id="filter-2">
            <feOffset dx="0" dy="2" in="SourceAlpha" result="shadowOffsetOuter1"></feOffset>
            <feGaussianBlur stdDeviation="4" in="shadowOffsetOuter1" result="shadowBlurOuter1"></feGaussianBlur>
            <feColorMatrix values="0 0 0 0 0.137254902   0 0 0 0 0.823529412   0 0 0 0 0.615686275  0 0 0 0.2 0" type="matrix" in="shadowBlurOuter1"></feColorMatrix>
        </filter>
        <ellipse id="path-3" cx="10.3222094" cy="8.96909712" rx="4.48791715" ry="4.48117998"></ellipse>
    </defs>
    <g id="Symbols" stroke="none" stroke-width="1" fill="none" fill-rule="evenodd">
        <g id="Main-Navigation-Bar_project-Open" transform="translate(-28.000000, -25.000000)">
            <g id="Group" transform="translate(28.000000, 31.000000)">
                <g id="Logo-Planifeye" transform="translate(14.810127, 0.000000)">
                    <g id="Icon-/-Planifeye">
                        <g id="background">
                            <use fill="black" fill-opacity="1" filter="url(#filter-2)" xlink:href="#path-1"></use>
                            <use fill="#23D29D" fill-rule="evenodd" xlink:href="#path-1"></use>
                        </g>
                        <g id="Shape" transform="translate(8.078251, 9.424626)">
                            <g id="Oval-2" transform="translate(5.834292, 4.487917)"></g>
                            <path d="M11.1776412,-7.10542736e-15 C16.8805193,-7.10542736e-15 20.6444189,3.32875226 20.6444189,8.8892816 C20.6444189,14.4498109 16.8805193,17.9298701 11.1776412,17.9298701 L6.34522648,17.9298701 C5.84348537,17.9298701 5.43674383,18.3366117 5.43674383,18.8383528 L5.43674383,18.8383528 C5.43674383,19.3400939 5.03000229,19.7468354 4.52826117,19.7468354 L2,19.7468354 C0.8954305,19.7468354 -1.22651102e-13,18.8514049 -1.34559031e-13,17.7468354 L-1.13686838e-13,2 C-1.13822108e-13,0.8954305 0.8954305,-6.90252123e-15 2,-7.10542736e-15 L11.1776412,-7.10542736e-15 Z" id="Combined-Shape" fill="#FFFFFF"></path>
                            <mask id="mask-4" fill="white">
                                <use xlink:href="#path-3"></use>
                            </mask>
                            <use id="Mask" fill="#22D19C" xlink:href="#path-3"></use>
                            <ellipse id="Oval-4" fill="#FFFFFF" mask="url(#mask-4)" cx="13.0114007" cy="6.27445339" rx="1.79160784" ry="1.78653625"></ellipse>
                        </g>
                    </g>
                </g>
                <path d="M4.22806426,51.8055236 C6.38523991,51.8055236 7.80897583,53.0580372 7.80897583,55.1503041 C7.80897583,57.2425711 6.38523991,58.5520171 4.22806426,58.5520171 L2.05650745,58.5520171 L2.05650745,61.7686997 L0,61.7686997 L0,51.8055236 L4.22806426,51.8055236 Z M4.14472348,56.3831991 C5.16057673,56.3831991 5.6547756,55.7966594 5.6547756,54.9021864 C5.6547756,53.9930499 5.16057673,53.4211738 4.14472348,53.4211738 L2.15420023,53.4211738 L2.15420023,56.3831991 L4.14472348,56.3831991 Z M9.15535098,61.4994246 L9.15535098,50.7284235 L11.0402762,50.7284235 L11.0402762,61.4994246 L9.15535098,61.4994246 Z M18.6968053,53.8593321 L20.7341772,53.8593321 L20.7199299,61.5998164 L18.6825579,61.5998164 L18.6825579,60.5583694 C18.1411584,61.290197 17.3290591,61.7686997 16.2320127,61.7686997 C14.1803934,61.7686997 12.6559264,60.1080139 12.6559264,57.7295742 C12.6559264,55.3370609 14.2088882,53.6904488 16.2177654,53.6904488 C17.3290591,53.6904488 18.1554058,54.1970987 18.6968053,54.9429999 L18.6968053,53.8593321 Z M16.5459888,59.8837745 C17.7000247,59.8837745 18.579977,59.0278009 18.579977,57.7295742 C18.579977,56.4456138 17.7000247,55.575374 16.5459888,55.575374 C15.391953,55.575374 14.5408516,56.4456138 14.5408516,57.7295742 C14.5408516,59.0278009 15.4063784,59.8837745 16.5459888,59.8837745 Z M26.5306765,53.6904488 C28.2880504,53.6904488 29.3509781,54.8298367 29.3509781,56.7056583 L29.3509781,61.4994246 L27.3243292,61.4994246 L27.3243292,57.1364025 C27.3243292,56.1359644 26.9416752,55.5801654 25.8645751,55.5801654 C24.7166132,55.5801654 24.1072013,56.2332292 24.1072013,57.4837769 L24.1072013,61.4994246 L22.0805524,61.4994246 L22.0805524,53.8571885 L24.1072013,53.8571885 L24.1072013,54.8993116 C24.6740961,54.121193 25.4535764,53.6904488 26.5306765,53.6904488 Z M31.9090909,50.1898734 C32.6170724,50.1898734 33.1208285,50.6917766 33.1208285,51.394441 C33.1208285,52.0971054 32.6170724,52.6133487 31.9090909,52.6133487 C31.2283394,52.6133487 30.6973533,52.0971054 30.6973533,51.394441 C30.6973533,50.6917766 31.2283394,50.1898734 31.9090909,50.1898734 Z M30.9666283,61.4994246 L30.9666283,53.6904488 L32.8515535,53.6904488 L32.8515535,61.4994246 L30.9666283,61.4994246 Z M39.0305814,52.2238985 C38.1012251,52.2238985 37.6436958,52.7039105 37.6436958,53.7062885 L37.6436958,53.7345245 L40.2601912,53.7345245 L40.2601912,55.6404545 L37.6436958,55.6404545 L37.6436958,61.4994246 L35.599112,61.4994246 L35.599112,55.6404545 L34.1979287,55.6404545 L34.1979287,53.7345245 L35.599112,53.7345245 L35.599112,53.6074625 C35.599112,51.3909365 37.1718688,50.4591484 38.8018168,50.4591484 C39.4166217,50.4591484 40.1601067,50.5862104 40.6605293,50.8120985 L40.2887868,52.4497865 L40.0171288,52.3791965 C39.6739819,52.2803705 39.330835,52.2238985 39.0305814,52.2238985 Z M45.2724998,53.6904488 C47.8556444,53.6904488 49.4594649,55.7029747 49.2607615,58.2502977 L43.2712723,58.2502977 C43.3990103,59.4887752 44.2505964,60.1080139 45.300886,60.1080139 C46.0815066,60.1080139 46.7627755,59.7561737 47.0324445,59.136935 L49.1330236,59.136935 C48.5511064,60.966504 46.9898651,61.7686997 45.3150791,61.7686997 C42.8738655,61.7686997 41.1990794,60.0517195 41.1990794,57.7436478 C41.1990794,55.4215025 42.8880586,53.6904488 45.2724998,53.6904488 Z M44.9904309,55.306099 C43.9870486,55.306099 43.3420172,55.8659777 43.0840046,56.6524741 L46.853855,56.6524741 C46.6245105,55.8526473 45.9794791,55.306099 44.9904309,55.306099 Z M55.4152169,53.6904488 L57.6248562,53.6904488 L52.4545893,65 L50.2593921,65 L52.3390526,60.4337687 L49.2773303,53.6904488 L51.4725274,53.6904488 L53.4366511,58.2425432 L55.4152169,53.6904488 Z M62.2368266,53.6904488 C64.8199712,53.6904488 66.4237918,55.7029747 66.2250883,58.2502977 L60.2355992,58.2502977 C60.3633371,59.4887752 61.2149232,60.1080139 62.2652128,60.1080139 C63.0458334,60.1080139 63.7271023,59.7561737 63.9967713,59.136935 L66.0973504,59.136935 C65.5154332,60.966504 63.954192,61.7686997 62.2794059,61.7686997 C59.8381923,61.7686997 58.1634062,60.0517195 58.1634062,57.7436478 C58.1634062,55.4215025 59.8523854,53.6904488 62.2368266,53.6904488 Z M61.9547577,55.306099 C60.9513754,55.306099 60.306344,55.8659777 60.0483314,56.6524741 L63.8181818,56.6524741 C63.5888373,55.8526473 62.9438059,55.306099 61.9547577,55.306099 Z" id="Planifeye" fill="#3D445C"></path>
            </g>
        </g>
    </g>
</svg>